name C:\Users\u0101727\Documents\MyRepositories\upper-imu-dc\Results\main_tracking\Case_63\kinematics.mot
datacolumns 10
datarows 47
range 2.07000000 2.53000000
endheader 
time	clav_prot	clav_elev	scapula_abduction	scapula_elevation	scapula_upward_rot	scapula_winging	plane_elv	shoulder_elv	axial_rot	
          2.07000000	        -22.72195719	         10.69576236	          7.28274202	          0.54445901	         46.72119717	         -5.38668597	         77.55735075	         89.44463297	        -32.05683917	
          2.08000000	        -22.82946631	         10.59692773	          7.33201213	          0.44456683	         46.96610340	         -5.42088594	         77.32536823	         89.82275138	        -31.87012924	
          2.09000000	        -22.93940282	         10.49290821	          7.37907541	          0.34125078	         47.21173677	         -5.45409157	         77.08464968	         90.18745468	        -31.68321362	
          2.10000000	        -23.05121077	         10.38427002	          7.42439161	          0.23498122	         47.45771007	         -5.48621853	         76.83574328	         90.53901074	        -31.49735114	
          2.11000000	        -23.16447536	         10.27157239	          7.46832681	          0.12619499	         47.70382065	         -5.51722087	         76.57917930	         90.87774953	        -31.31348886	
          2.12000000	        -23.27894467	         10.15536556	          7.51112304	          0.01529329	         47.95005961	         -5.54709289	         76.31546022	         91.20404975	        -31.13221736	
          2.13000000	        -23.39453171	         10.03619227	          7.55288880	         -0.09735520	         48.19660460	         -5.57586833	         76.04504587	         91.51832562	        -30.95375912	
          2.14000000	        -23.51129848	          9.91459276	          7.59360829	         -0.21140642	         48.44379783	         -5.60361713	         75.76833546	         91.82101395	        -30.77798889	
          2.15000000	        -23.62942470	          9.79110975	          7.63316674	         -0.32653123	         48.69211001	         -5.63043981	         75.48564912	         92.11256322	        -30.60448564	
          2.16000000	        -23.74916844	          9.66629024	          7.67138361	         -0.44240679	         48.94209554	         -5.65646001	         75.19721231	         92.39342503	        -30.43260665	
          2.17000000	        -23.87082556	          9.54068245	          7.70804664	         -0.55871168	         49.19434462	         -5.68181620	         74.90314656	         92.66404787	        -30.26157184	
          2.18000000	        -23.99469343	          9.41482771	          7.74294191	         -0.67512517	         49.44943820	         -5.70665325	         74.60346902	         92.92487283	        -30.09054704	
          2.19000000	        -24.12104164	          9.28924954	          7.77587762	         -0.79133010	         49.70791001	         -5.73111483	         74.29810181	         93.17633014	        -29.91871706	
          2.20000000	        -24.25009022	          9.16444198	          7.80670206	         -0.90701755	         49.97021772	         -5.75533694	         73.98689050	         93.41883603	        -29.74534469	
          2.21000000	        -24.38199493	          9.04085960	          7.83531622	         -1.02189206	         50.23672387	         -5.77944302	         73.66962956	         93.65278916	        -29.56981320	
          2.22000000	        -24.51683965	          8.91890959	          7.86168070	         -1.13567649	         50.50768620	         -5.80354042	         73.34609206	         93.87856679	        -29.39165259	
          2.23000000	        -24.65463683	          8.79894511	          7.88581487	         -1.24811741	         50.78325645	         -5.82771840	         73.01606062	         94.09652068	        -29.21054862	
          2.24000000	        -24.79533682	          8.68125820	          7.90778612	         -1.35899182	         51.06348660	         -5.85204727	         72.67935686	         94.30697287	        -29.02633492	
          2.25000000	        -24.93884529	          8.56607133	          7.92768966	         -1.46811566	         51.34834025	         -5.87657838	         72.33586686	         94.51021124	        -28.83896997	
          2.26000000	        -25.08504545	          8.45352855	          7.94562175	         -1.57535310	         51.63770661	         -5.90134463	         71.98556040	         94.70648426	        -28.64850292	
          2.27000000	        -25.23382055	          8.34368799	          7.96165199	         -1.68062456	         51.93141410	         -5.92636120	         71.62850327	         94.89599429	        -28.45503474	
          2.28000000	        -25.38507158	          8.23651797	          7.97580065	         -1.78391190	         52.22924087	         -5.95162638	         71.26486284	         95.07888952	        -28.25868183	
          2.29000000	        -25.53872665	          8.13189805	          7.98802600	         -1.88525904	         52.53092104	         -5.97712216	         70.89490802	         95.25525533	        -28.05954898	
          2.30000000	        -25.69474019	          8.02962559	          7.99822468	         -1.98476792	         52.83614639	         -6.00281469	         70.51900477	         95.42510719	        -27.85771663	
          2.31000000	        -25.85308244	          7.92942758	          8.00624546	         -2.08258996	         53.14456486	         -6.02865461	         70.13760774	         95.58838704	        -27.65324498	
          2.32000000	        -26.01372136	          7.83097653	          8.01191436	         -2.17891416	         53.45577772	         -6.05457729	         69.75124887	         95.74496545	        -27.44619380	
          2.33000000	        -26.17660098	          7.73390872	          8.01506666	         -2.27395337	         53.76933798	         -6.08050337	         69.36052346	         95.89465048	        -27.23665394	
          2.34000000	        -26.34162094	          7.63784276	          8.01557980	         -2.36793065	         54.08475236	         -6.10633958	         68.96607449	         96.03720326	        -27.02478317	
          2.35000000	        -26.50862201	          7.54239629	          8.01340065	         -2.46106757	         54.40148838	         -6.13198025	         68.56857617	         96.17235879	        -26.81083821	
          2.36000000	        -26.67738080	          7.44719936	          8.00856187	         -2.55357545	         54.71898721	         -6.15730953	         68.16871726	         96.29984982	        -26.59519515	
          2.37000000	        -26.84761481	          7.35190443	          8.00118525	         -2.64564984	         55.03668138	         -6.18220448	         67.76718477	         96.41943075	        -26.37835360	
          2.38000000	        -27.01899657	          7.25619370	          7.99147243	         -2.73746727	         55.35401598	         -6.20653913	         67.36464850	         96.53089927	        -26.16092329	
          2.39000000	        -27.19117428	          7.15978468	          7.97968587	         -2.82918355	         55.67047139	         -6.23018924	         66.96174789	         96.63411389	        -25.94359533	
          2.40000000	        -27.36379559	          7.06243467	          7.96612451	         -2.92093272	         55.98558579	         -6.25303765	         66.55908226	         96.72900686	        -25.72710269	
          2.41000000	        -27.53653117	          6.96394468	          7.95109855	         -3.01282613	         56.29897564	         -6.27497969	         66.15720567	         96.81559237	        -25.51217604	
          2.42000000	        -27.70909483	          6.86416267	          7.93490713	         -3.10495135	         56.61035244	         -6.29592814	         65.75662621	         96.89397043	        -25.29950129	
          2.43000000	        -27.88125847	          6.76298549	          7.91782148	         -3.19737134	         56.91953399	         -6.31581714	         65.35780895	         96.96432693	        -25.08968411	
          2.44000000	        -28.05286046	          6.66035910	          7.90007442	         -3.29012404	         57.22644907	         -6.33460468	         64.96118058	         97.02693042	        -24.88322540	
          2.45000000	        -28.22380706	          6.55627681	          7.88185667	         -3.38322267	         57.53113488	         -6.35227322	         64.56713367	         97.08212615	        -24.68050987	
          2.46000000	        -28.39406732	          6.45077562	          7.86331935	         -3.47665666	         57.83372744	         -6.36882855	         64.17602866	         97.13032806	        -24.48180854	
          2.47000000	        -28.56366219	          6.34393084	          7.84458159	         -3.57039343	         58.13444558	         -6.38429688	         63.78819236	         97.17200923	        -24.28729402	
          2.48000000	        -28.73264964	          6.23584912	          7.82574148	         -3.66438102	         58.43357013	         -6.39872044	         63.40391285	         97.20769128	        -24.09706606	
          2.49000000	        -28.90110795	          6.12666066	          7.80688793	         -3.75855130	         58.73142010	         -6.41215226	         63.02343119	         97.23793294	        -23.91118260	
          2.50000000	        -29.06911975	          6.01651100	          7.78811056	         -3.85282376	         59.02832846	         -6.42465074	         62.64693134	         97.26331813	        -23.72969094	
          2.51000000	        -29.23675932	          5.90555343	          7.76950541	         -3.94710943	         59.32461975	         -6.43627480	         62.27452983	         97.28444382	        -23.55265327	
          2.52000000	        -29.40408447	          5.79394313	          7.75117524	         -4.04131411	         59.62059190	         -6.44708036	         61.90626711	         97.30190808	        -23.38016246	
          2.53000000	        -29.57113366	          5.68183436	          7.73322500	         -4.13534020	         59.91650382	         -6.45711883	         61.54210238	         97.31629866	        -23.21234593	
